<svg xmlns="http://www.w3.org/2000/svg" viewBox="0 0 256 256">
  <defs>
    <linearGradient id="a" x1="33.34" y1="11.69" x2="170.66" y2="220.31" gradientUnits="userSpaceOnUse">
      <stop offset="0" stop-color="#5a62c3"/>
      <stop offset="1" stop-color="#3940ab"/>
    </linearGradient>
  </defs>
  <path d="M193.74 100.62h44.84a8.42 8.42 0 0 1 8.42 8.42v40.93a35.42 35.42 0 0 1-35.42 35.42h-.13a35.42 35.42 0 0 1-35.42-35.42v-44.96a4.39 4.39 0 0 1 4.39-4.39h13.32z" fill="#5059c9"/>
  <circle cx="218.5" cy="73.5" r="22.5" fill="#5059c9"/>
  <circle cx="142" cy="63" r="32" fill="#7b83eb"/>
  <path d="M194.35 100.62H88.2a8.32 8.32 0 0 0-8.13 8.5v66.74C79.34 215.78 110.6 248 149.27 248s69.94-32.22 69.21-72.14v-66.74a8.32 8.32 0 0 0-8.13-8.5z" fill="#7b83eb"/>
  <path d="M152 100.62v97.05a7.86 7.86 0 0 1-4.86 7.27 7.5 7.5 0 0 1-2.91.59h-58.74A65 65 0 0 1 80 175.86v-66.74a8.32 8.32 0 0 1 8.13-8.5z" opacity=".1"/>
  <path d="M144 100.62v105.05a7.5 7.5 0 0 1-.59 2.91 7.86 7.86 0 0 1-7.27 4.86h-46.7q-3.62-3.45-6.79-7.27a72 72 0 0 1-12.65-22.05A65 65 0 0 1 80 175.86v-66.74a8.32 8.32 0 0 1 8.13-8.5z" opacity=".2"/>
  <path d="M144 100.62v89.05a8 8 0 0 1-7.86 7.86h-66.4A72 72 0 0 1 80 175.86v-66.74a8.32 8.32 0 0 1 8.13-8.5z" opacity=".2"/>
  <path d="M136 100.62v89.05a8 8 0 0 1-7.86 7.86H68.74A72 72 0 0 1 80 109.12a8.32 8.32 0 0 1 8.13-8.5z" opacity=".2"/>
  <path d="M16 92.78h112a8 8 0 0 1 8 8v112.44a8 8 0 0 1-8 8H16a8 8 0 0 1-8-8V100.78a8 8 0 0 1 8-8z" fill="url(#a)"/>
  <path d="M101.7 135.42H79.31v60.95H65.05v-60.95H42.78V123.6H101.7v11.82z" fill="#fff"/>
</svg>
